#!OML:ASF I:\Actors\actors\Patient Classification 2\Patient 1\Session 1\actor1.ASF
:FULLY-SPECIFIED
:DEGREES
586
root -1.03285 18.1677 5.84842 -1.15288 2.78041 -4.99548
lowerback 4.5947 1.72789 3.66778
upperback 1.25981 2.49329 1.44663
thorax -1.1867 1.24037 -0.704424
lowerneck -7.73059 3.72823 1.09296
upperneck 33.5037 10.2309 -14.0589
head 13.488 3.06027 -4.36497
rclavicle -4.50993e-015 1.86858e-014
rhumerus -17.7534 43.9022 -82.0728
rradius 109.74
rwrist -2.20362
rhand -28.0448 -37.2315
rfingers 7.12502
rthumb -1.42919 -427.206
lclavicle -4.50993e-015 1.86858e-014
lhumerus -19.8182 -19.5714 100.387
lradius 98.0002
lwrist 79.6012
lhand -16.3907 -12.5202
lfingers 7.12502
lthumb 9.82322 17.2306
rfemur 0 0 0
rtibia 0
rfoot 0 0
rtoes 0
lfemur 18.7356 -6.46104 -11.7027
ltibia -20.1789
lfoot -0.735133 18.1673
ltoes -13.732
587
root -1.03272 18.1683 5.84916 -1.13534 2.80686 -4.99657
lowerback 4.56078 1.70264 3.62767
upperback 1.2645 2.4563 1.46556
thorax -1.16691 1.22234 -0.659525
lowerneck -7.70987 3.75203 1.109
upperneck 33.5605 10.2556 -14.014
head 13.5088 3.07661 -4.34937
rclavicle -2.33448e-014 1.1778e-014
rhumerus -18.4912 44.4761 -82.3256
rradius 110.232
rwrist -1.91994
rhand -28.0688 -36.7657
rfingers 7.12502
rthumb -1.45238 -426.74
lclavicle -2.33448e-014 1.1778e-014
lhumerus -19.8157 -19.4345 100.359
lradius 98.0272
lwrist 79.6
lhand -16.2421 -12.4844
lfingers 7.12502
lthumb 9.96656 17.2596
rfemur 0 0 0
rtibia 0
rfoot 0 0
rtoes 0
lfemur 18.7105 -6.53611 -11.7064
ltibia -20.1732
lfoot -0.732412 18.2107
ltoes -13.9432
588
root -1.03279 18.1679 5.84835 -1.12628 2.76742 -4.98675
lowerback 4.55033 1.69704 3.60565
upperback 1.26501 2.44718 1.45813
thorax -1.1615 1.2179 -0.654044
lowerneck -7.6578 3.76534 1.17825
upperneck 33.4266 10.298 -14.197
head 13.4604 3.09115 -4.42519
rclavicle 2.17576e-014 3.23025e-015
rhumerus -19.0838 44.85 -82.6591
rradius 110.567
rwrist -1.65357
rhand -28.219 -36.5088
rfingers 7.12502
rthumb -1.59741 -426.483
lclavicle 2.17576e-014 3.23025e-015
lhumerus -19.8839 -19.3581 100.387
lradius 98.0273
lwrist 79.5016
lhand -16.1088 -12.5965
lfingers 7.12502
lthumb 10.0952 17.1414
rfemur 0 0 0
rtibia 0
rfoot 0 0
rtoes 0
lfemur 18.7186 -6.60605 -11.726
ltibia -20.1793
lfoot -0.794488 18.3137
ltoes -13.8203
589
root -1.03401 18.167 5.84564 -1.13282 2.67662 -4.99865
lowerback 4.5592 1.70785 3.61944
upperback 1.2796 2.46187 1.44233
thorax -1.14961 1.22554 -0.678656
lowerneck -7.74726 3.75776 1.10661
upperneck 33.5588 10.2631 -14.0121
head 13.5171 3.07711 -4.3467
rclavicle -2.51245e-014 -3.47873e-016
rhumerus -19.373 44.9336 -82.9335
rradius 110.68
rwrist -1.34943
rhand -28.2399 -36.4138
rfingers 7.12502
rthumb -1.6176 -426.387
lclavicle -2.51245e-014 -3.47873e-016
lhumerus -19.9167 -19.3501 100.371
lradius 97.9871
lwrist 79.3943
lhand -16.1021 -12.6494
lfingers 7.12502
lthumb 10.1017 17.0881
rfemur 0 0 0
rtibia 0
rfoot 0 0
rtoes 0
lfemur 18.7432 -6.63085 -11.7182
ltibia -20.176
lfoot -0.860259 18.4109
ltoes -13.6919
590
root -1.03545 18.1666 5.84295 -1.16009 2.57481 -5.02077
lowerback 4.57247 1.71616 3.65102
upperback 1.29739 2.47412 1.42486
thorax -1.13611 1.23201 -0.71485
lowerneck -7.75141 3.73343 1.08455
upperneck 33.6427 10.1879 -13.8542
head 13.5324 3.05462 -4.29248
rclavicle 1.90398e-014 -5.71506e-015
rhumerus -19.4685 44.7157 -83.1859
rradius 110.599
rwrist -1.17183
rhand -28.2833 -36.4438
rfingers 7.12502
rthumb -1.65954 -426.417
lclavicle 1.90398e-014 -5.71506e-015
lhumerus -19.9161 -19.3473 100.303
lradius 97.9495
lwrist 79.4201
lhand -16.2592 -12.5637
lfingers 7.12502
lthumb 9.95005 17.1811
rfemur 0 0 0
rtibia 0
rfoot 0 0
rtoes 0
lfemur 18.7794 -6.6083 -11.6968
ltibia -20.1512
lfoot -0.869955 18.4523
ltoes -13.8967
591
root -1.03552 18.1655 5.84039 -1.20586 2.47636 -4.98652
lowerback 4.61934 1.71984 3.63055
upperback 1.29939 2.47972 1.38629
thorax -1.15918 1.23447 -0.744872
lowerneck -7.72293 3.73393 1.18402
upperneck 33.7646 10.1605 -13.7835
head 13.5759 3.05867 -4.2927
rclavicle -1.28775e-014 -2.73329e-014
rhumerus -19.5281 44.2379 -83.548
rradius 110.396
rwrist -1.12484
rhand -28.3239 -36.6973
rfingers 7.12502
rthumb -1.69878 -426.67
lclavicle -1.28775e-014 -2.73329e-014
lhumerus -19.9334 -19.339 100.237
lradius 97.9324
lwrist 79.4826
lhand -16.4168 -12.4559
lfingers 7.12502
lthumb 9.79809 17.2962
rfemur 0 0 0
rtibia 0
rfoot 0 0
rtoes 0
lfemur 18.837 -6.56401 -11.7456
ltibia -20.1168
lfoot -0.877159 18.4638
ltoes -13.9692
592
root -1.03544 18.1647 5.83758 -1.23245 2.38655 -4.94346
lowerback 4.6707 1.72571 3.58926
upperback 1.28743 2.48789 1.34791
thorax -1.19992 1.23782 -0.763724
lowerneck -7.7457 3.72674 1.25762
upperneck 33.8092 10.1589 -13.8326
head 13.6084 3.05812 -4.32939
rclavicle -2.11954e-014 -1.40143e-014
rhumerus -19.5434 43.6068 -83.9494
rradius 110.155
rwrist -1.09338
rhand -28.2223 -36.9878
rfingers 7.12502
rthumb -1.60058 -426.962
lclavicle -2.11954e-014 -1.40143e-014
lhumerus -19.98 -19.3638 100.179
lradius 97.9255
lwrist 79.5333
lhand -16.4399 -12.4392
lfingers 7.12502
lthumb 9.77576 17.3139
rfemur 0 0 0
rtibia 0
rfoot 0 0
rtoes 0
lfemur 18.8698 -6.58926 -11.8105
ltibia -20.0768
lfoot -0.968312 18.5565
ltoes -13.7326
593
root -1.03629 18.1655 5.83471 -1.22716 2.30265 -4.94661
lowerback 4.68818 1.73629 3.56087
upperback 1.282 2.50166 1.34833
thorax -1.21598 1.24441 -0.748934
lowerneck -7.75199 3.66696 1.27458
upperneck 33.9409 10.0298 -13.6761
head 13.6415 3.01504 -4.29321
rclavicle 1.54493e-014 -5.06901e-015
rhumerus -19.5474 42.9608 -84.252
rradius 110
rwrist -1.0983
rhand -28.0783 -37.1902
rfingers 7.12502
rthumb -1.46153 -427.165
lclavicle 1.54493e-014 -5.06901e-015
lhumerus -20.0084 -19.3935 100.159
lradius 97.9317
lwrist 79.5899
lhand -16.3718 -12.5005
lfingers 7.12502
lthumb 9.84143 17.2495
rfemur 0 0 0
rtibia 0
rfoot 0 0
rtoes 0
lfemur 18.8579 -6.65012 -11.8169
ltibia -20.0369
lfoot -1.09457 18.697
ltoes -13.4601
594
root -1.03703 18.1664 5.83171 -1.20063 2.20752 -4.97908
lowerback 4.68662 1.76923 3.55947
upperback 1.27735 2.54584 1.36904
thorax -1.21921 1.26635 -0.729274
lowerneck -7.79282 3.61294 1.16691
upperneck 33.9492 9.92513 -13.5399
head 13.6264 2.96837 -4.23149
rclavicle 2.21272e-014 2.03754e-014
rhumerus -19.6327 42.391 -84.4933
rradius 109.938
rwrist -1.05624
rhand -28.0289 -37.3163
rfingers 7.12502
rthumb -1.41383 -427.291
lclavicle 2.21272e-014 2.03754e-014
lhumerus -19.9974 -19.4498 100.196
lradius 97.9501
lwrist 79.624
lhand -16.3334 -12.5294
lfingers 7.12502
lthumb 9.87849 17.2188
rfemur 0 0 0
rtibia 0
rfoot 0 0
rtoes 0
lfemur 18.8326 -6.66531 -11.783
ltibia -20.0189
lfoot -1.16308 18.8058
ltoes -13.2779
595
root -1.03698 18.1675 5.82865 -1.15532 2.10378 -5.04862
lowerback 4.68661 1.81929 3.62005
upperback 1.25704 2.61632 1.39104
thorax -1.2357 1.30094 -0.744565
lowerneck -7.8031 3.57172 1.1061
upperneck 33.9529 9.83262 -13.4149
head 13.6067 2.93378 -4.18137
rclavicle 2.00338e-014 1.97791e-014
rhumerus -19.6956 41.8471 -84.618
rradius 109.859
rwrist -0.581501
rhand -27.5656 -37.1436
rfingers 7.12502
rthumb -0.966357 -427.121
lclavicle 2.00338e-014 1.97791e-014
lhumerus -19.9974 -19.5528 100.259
lradius 97.979
lwrist 79.6483
lhand -16.3283 -12.5302
lfingers 7.12502
lthumb 9.88344 17.2178
rfemur 0 0 0
rtibia 0
rfoot 0 0
rtoes 0
lfemur 18.7973 -6.68091 -11.7128
ltibia -20.0212
lfoot -1.18999 18.9193
ltoes -13.4097
596
root -1.03587 18.1688 5.82625 -1.12794 2.03306 -5.1158
lowerback 4.71869 1.85094 3.65647
upperback 1.22915 2.66354 1.44224
thorax -1.28124 1.32339 -0.716668
lowerneck -7.7702 3.54487 1.08736
upperneck 33.9653 9.76855 -13.3361
head 13.5903 2.91351 -4.15527
rclavicle -3.516e-015 4.17448e-015
rhumerus -19.6877 41.4384 -84.547
rradius 109.783
rwrist 0.218618
rhand -26.613 -36.6847
rfingers 7.12502
rthumb -0.0462782 -426.664
lclavicle -3.516e-015 4.17448e-015
lhumerus -20.0425 -19.6213 100.363
lradius 98.0107
lwrist 79.6182
lhand -16.2916 -12.5543
lfingers 7.12502
lthumb 9.91886 17.1921
rfemur 0 0 0
rtibia 0
rfoot 0 0
rtoes 0
lfemur 18.7715 -6.60286 -11.6409
ltibia -20.0307
lfoot -1.12555 18.9106
ltoes -13.8077
597
root -1.03406 18.1686 5.82471 -1.12225 2.02003 -5.12028
lowerback 4.75762 1.85034 3.59984
upperback 1.21183 2.6637 1.50802
thorax -1.32659 1.32269 -0.619617
lowerneck -7.77342 3.55228 1.03417
upperneck 33.9352 9.79601 -13.364
head 13.5808 2.91693 -4.15151
rclavicle 2.25062e-014 6.95746e-016
rhumerus -19.7148 41.3985 -84.4201
rradius 109.802
rwrist 0.635328
rhand -26.0456 -36.251
rfingers 7.12502
rthumb 0.501673 -426.23
lclavicle 2.25062e-014 6.95746e-016
lhumerus -20.1143 -19.6335 100.477
lradius 98.0519
lwrist 79.5313
lhand -16.258 -12.5807
lfingers 7.12502
lthumb 9.95122 17.1641
rfemur 0 0 0
rtibia 0
rfoot 0 0
rtoes 0
lfemur 18.7655 -6.4482 -11.6258
ltibia -20.0474
lfoot -1.04188 18.7894
ltoes -13.796
598
root -1.03209 18.1678 5.82362 -1.11313 2.05795 -5.10845
lowerback 4.74143 1.8162 3.57769
upperback 1.22542 2.61632 1.52996
thorax -1.30732 1.29955 -0.581361
lowerneck -7.84501 3.59817 1.01041
upperneck 33.8872 9.88793 -13.4294
head 13.5902 2.94543 -4.1577
rclavicle 3.55825e-014 2.27111e-014
rhumerus -19.7453 41.5599 -84.3489
rradius 109.874
rwrist 0.658591
rhand -25.784 -35.8851
rfingers 7.12502
rthumb 0.754341 -425.864
lclavicle 3.55825e-014 2.27111e-014
lhumerus -20.1192 -19.6213 100.468
lradius 98.0951
lwrist 79.5432
lhand -16.3054 -12.5219
lfingers 7.12502
lthumb 9.90556 17.225
rfemur 0 0 0
rtibia 0
rfoot 0 0
rtoes 0
lfemur 18.7561 -6.39705 -11.6311
ltibia -20.0637
lfoot -1.024 18.7238
ltoes -13.601
